# xmcd CD database file
#
# Track frame offsets:
#	150
#	22215
#	41855
#	63860
#	87161
#	105906
#	118462
#	141164
#	170874
#	195356
#
# Disc length: 2892 seconds
#
# Revision: 0
# Processed by: cddbd v1.5.1PL0 Copyright (c) Steve Scherf et al.
# Submitted via: CDex 1.51
#
DISCID=8d0b4a0a
DTITLE=Temur Kvitelashvily - Temur Kvitelashvily
DYEAR=2005
DGENRE=Jazz
TTITLE0=Keto y Kote
TTITLE1=Belaya Tropinka
TTITLE2=Nostalghia
TTITLE3=Alioni
TTITLE4=Ave Maria
TTITLE5=21 Guitara
TTITLE6=Besame Mucho
TTITLE7=Uspokoisia Sredtse
TTITLE8=Hava Nagila
TTITLE9=Strana Tsvetov
EXTD=YEAR: 2005
EXTT0=
EXTT1=
EXTT2=
EXTT3=
EXTT4=
EXTT5=
EXTT6=
EXTT7=
EXTT8=
EXTT9=
PLAYORDER=
